<mxfile host="app.diagrams.net" modified="2024-06-19T19:19:21.584Z" agent="Mozilla/5.0 (Windows NT 10.0; Win64; x64) AppleWebKit/537.36 (KHTML, like Gecko) Chrome/126.0.0.0 Safari/537.36" etag="ATrIxKpK6U8mRalJO8Fv" version="24.5.4" type="device">
  <diagram name="Page-1" id="CvntdL4OmivlyGJTHXUn">
    <mxGraphModel dx="1050" dy="522" grid="1" gridSize="10" guides="1" tooltips="1" connect="1" arrows="1" fold="1" page="1" pageScale="1" pageWidth="827" pageHeight="1169" math="0" shadow="0">
      <root>
        <mxCell id="0" />
        <mxCell id="1" parent="0" />
        <mxCell id="yjt7Zkk50xY2KLtUDUE4-1" value="Car&#39;s" style="whiteSpace=wrap;html=1;aspect=fixed;" vertex="1" parent="1">
          <mxGeometry x="360" y="360" width="100" height="100" as="geometry" />
        </mxCell>
        <mxCell id="yjt7Zkk50xY2KLtUDUE4-2" value="Id" style="ellipse;whiteSpace=wrap;html=1;" vertex="1" parent="1">
          <mxGeometry x="30" y="320" width="120" height="80" as="geometry" />
        </mxCell>
        <mxCell id="yjt7Zkk50xY2KLtUDUE4-3" value="Company Name" style="ellipse;whiteSpace=wrap;html=1;" vertex="1" parent="1">
          <mxGeometry x="50" y="170" width="120" height="80" as="geometry" />
        </mxCell>
        <mxCell id="yjt7Zkk50xY2KLtUDUE4-4" value="Engine" style="ellipse;whiteSpace=wrap;html=1;" vertex="1" parent="1">
          <mxGeometry x="240" y="30" width="120" height="80" as="geometry" />
        </mxCell>
        <mxCell id="yjt7Zkk50xY2KLtUDUE4-5" value="Torque" style="ellipse;whiteSpace=wrap;html=1;" vertex="1" parent="1">
          <mxGeometry x="550" y="80" width="120" height="80" as="geometry" />
        </mxCell>
        <mxCell id="yjt7Zkk50xY2KLtUDUE4-7" value="power" style="ellipse;whiteSpace=wrap;html=1;" vertex="1" parent="1">
          <mxGeometry x="410" y="20" width="120" height="80" as="geometry" />
        </mxCell>
        <mxCell id="yjt7Zkk50xY2KLtUDUE4-9" value="&lt;div style=&quot;text-align: start;&quot;&gt;&lt;font face=&quot;roboto, sans-serif, Arial&quot; color=&quot;#24272c&quot;&gt;&lt;span style=&quot;font-size: 15px; background-color: rgb(255, 255, 255);&quot;&gt;Displacement&lt;/span&gt;&lt;/font&gt;&lt;/div&gt;" style="ellipse;whiteSpace=wrap;html=1;" vertex="1" parent="1">
          <mxGeometry x="640" y="280" width="120" height="80" as="geometry" />
        </mxCell>
        <mxCell id="yjt7Zkk50xY2KLtUDUE4-10" value="Car name&lt;div&gt;&lt;br&gt;&lt;/div&gt;" style="ellipse;whiteSpace=wrap;html=1;" vertex="1" parent="1">
          <mxGeometry x="110" y="70" width="120" height="80" as="geometry" />
        </mxCell>
        <mxCell id="yjt7Zkk50xY2KLtUDUE4-11" value="" style="endArrow=none;html=1;rounded=0;entryX=0.5;entryY=0;entryDx=0;entryDy=0;exitX=1;exitY=0.5;exitDx=0;exitDy=0;" edge="1" parent="1" source="yjt7Zkk50xY2KLtUDUE4-2" target="yjt7Zkk50xY2KLtUDUE4-1">
          <mxGeometry width="50" height="50" relative="1" as="geometry">
            <mxPoint x="390" y="300" as="sourcePoint" />
            <mxPoint x="440" y="250" as="targetPoint" />
          </mxGeometry>
        </mxCell>
        <mxCell id="yjt7Zkk50xY2KLtUDUE4-12" value="" style="endArrow=none;html=1;rounded=0;exitX=0.98;exitY=0.73;exitDx=0;exitDy=0;exitPerimeter=0;" edge="1" parent="1" source="yjt7Zkk50xY2KLtUDUE4-3">
          <mxGeometry width="50" height="50" relative="1" as="geometry">
            <mxPoint x="160" y="370" as="sourcePoint" />
            <mxPoint x="410" y="360" as="targetPoint" />
          </mxGeometry>
        </mxCell>
        <mxCell id="yjt7Zkk50xY2KLtUDUE4-13" value="" style="endArrow=none;html=1;rounded=0;entryX=0.5;entryY=0;entryDx=0;entryDy=0;exitX=1;exitY=1;exitDx=0;exitDy=0;" edge="1" parent="1" source="yjt7Zkk50xY2KLtUDUE4-10" target="yjt7Zkk50xY2KLtUDUE4-1">
          <mxGeometry width="50" height="50" relative="1" as="geometry">
            <mxPoint x="170" y="380" as="sourcePoint" />
            <mxPoint x="430" y="380" as="targetPoint" />
          </mxGeometry>
        </mxCell>
        <mxCell id="yjt7Zkk50xY2KLtUDUE4-14" value="" style="endArrow=none;html=1;rounded=0;entryX=0.5;entryY=0;entryDx=0;entryDy=0;exitX=0.677;exitY=0.98;exitDx=0;exitDy=0;exitPerimeter=0;" edge="1" parent="1" source="yjt7Zkk50xY2KLtUDUE4-4" target="yjt7Zkk50xY2KLtUDUE4-1">
          <mxGeometry width="50" height="50" relative="1" as="geometry">
            <mxPoint x="222" y="148" as="sourcePoint" />
            <mxPoint x="420" y="370" as="targetPoint" />
          </mxGeometry>
        </mxCell>
        <mxCell id="yjt7Zkk50xY2KLtUDUE4-15" value="" style="endArrow=none;html=1;rounded=0;entryX=0.5;entryY=0;entryDx=0;entryDy=0;exitX=0.333;exitY=0.975;exitDx=0;exitDy=0;exitPerimeter=0;" edge="1" parent="1" source="yjt7Zkk50xY2KLtUDUE4-7" target="yjt7Zkk50xY2KLtUDUE4-1">
          <mxGeometry width="50" height="50" relative="1" as="geometry">
            <mxPoint x="331" y="118" as="sourcePoint" />
            <mxPoint x="420" y="370" as="targetPoint" />
          </mxGeometry>
        </mxCell>
        <mxCell id="yjt7Zkk50xY2KLtUDUE4-16" value="" style="endArrow=none;html=1;rounded=0;exitX=0;exitY=1;exitDx=0;exitDy=0;" edge="1" parent="1" source="yjt7Zkk50xY2KLtUDUE4-5">
          <mxGeometry width="50" height="50" relative="1" as="geometry">
            <mxPoint x="341" y="128" as="sourcePoint" />
            <mxPoint x="410" y="360" as="targetPoint" />
          </mxGeometry>
        </mxCell>
        <mxCell id="yjt7Zkk50xY2KLtUDUE4-17" value="" style="endArrow=none;html=1;rounded=0;exitX=0;exitY=0.5;exitDx=0;exitDy=0;" edge="1" parent="1" source="yjt7Zkk50xY2KLtUDUE4-9">
          <mxGeometry width="50" height="50" relative="1" as="geometry">
            <mxPoint x="351" y="138" as="sourcePoint" />
            <mxPoint x="410" y="360" as="targetPoint" />
          </mxGeometry>
        </mxCell>
      </root>
    </mxGraphModel>
  </diagram>
</mxfile>
